<mxfile host="app.diagrams.net" modified="2023-05-22T07:26:54.648Z" agent="Mozilla/5.0 (Macintosh; Intel Mac OS X 10_15_7) AppleWebKit/537.36 (KHTML, like Gecko) Chrome/113.0.0.0 Safari/537.36" etag="OOcl2KfbQI_0JH807GJK" version="21.3.2" type="github">
  <diagram name="第 1 页" id="WKOajXAuy44UoEpm-j3J">
    <mxGraphModel dx="1841" dy="1035" grid="1" gridSize="10" guides="1" tooltips="1" connect="1" arrows="1" fold="1" page="1" pageScale="1" pageWidth="1654" pageHeight="2336" math="0" shadow="0">
      <root>
        <mxCell id="0" />
        <mxCell id="1" parent="0" />
        <mxCell id="4RL9cxB60USZuB9PjdWt-29" value="" style="group" parent="1" vertex="1" connectable="0">
          <mxGeometry x="580" y="300" width="760" height="190" as="geometry" />
        </mxCell>
        <mxCell id="Ua5t-kMHucpOH0GJdCgf-6" value="" style="group" vertex="1" connectable="0" parent="4RL9cxB60USZuB9PjdWt-29">
          <mxGeometry x="500" y="-140" width="260" height="100" as="geometry" />
        </mxCell>
        <mxCell id="4RL9cxB60USZuB9PjdWt-5" value="Ethereum" style="strokeWidth=2;html=1;shape=mxgraph.flowchart.database;whiteSpace=wrap;" parent="Ua5t-kMHucpOH0GJdCgf-6" vertex="1">
          <mxGeometry width="70" height="100" as="geometry" />
        </mxCell>
        <mxCell id="4RL9cxB60USZuB9PjdWt-7" value="ETL" style="shape=parallelogram;html=1;strokeWidth=2;perimeter=parallelogramPerimeter;whiteSpace=wrap;rounded=1;arcSize=12;size=0.23;" parent="Ua5t-kMHucpOH0GJdCgf-6" vertex="1">
          <mxGeometry x="160" y="20" width="100" height="60" as="geometry" />
        </mxCell>
        <mxCell id="4RL9cxB60USZuB9PjdWt-8" style="edgeStyle=orthogonalEdgeStyle;rounded=0;orthogonalLoop=1;jettySize=auto;html=1;exitX=1;exitY=0.5;exitDx=0;exitDy=0;exitPerimeter=0;" parent="Ua5t-kMHucpOH0GJdCgf-6" source="4RL9cxB60USZuB9PjdWt-5" target="4RL9cxB60USZuB9PjdWt-7" edge="1">
          <mxGeometry relative="1" as="geometry" />
        </mxCell>
        <mxCell id="Ua5t-kMHucpOH0GJdCgf-5" value="" style="group" vertex="1" connectable="0" parent="1">
          <mxGeometry x="610" y="290" width="940" height="300" as="geometry" />
        </mxCell>
        <mxCell id="4RL9cxB60USZuB9PjdWt-11" value="Postgre" style="strokeWidth=2;html=1;shape=mxgraph.flowchart.database;whiteSpace=wrap;" parent="Ua5t-kMHucpOH0GJdCgf-5" vertex="1">
          <mxGeometry y="60" width="80" height="110" as="geometry" />
        </mxCell>
        <mxCell id="4RL9cxB60USZuB9PjdWt-32" value="" style="edgeStyle=orthogonalEdgeStyle;rounded=0;orthogonalLoop=1;jettySize=auto;html=1;" parent="Ua5t-kMHucpOH0GJdCgf-5" source="4RL9cxB60USZuB9PjdWt-21" edge="1">
          <mxGeometry relative="1" as="geometry">
            <mxPoint x="410" y="115" as="targetPoint" />
          </mxGeometry>
        </mxCell>
        <mxCell id="4RL9cxB60USZuB9PjdWt-21" value="Listening Channel" style="rounded=1;whiteSpace=wrap;html=1;" parent="Ua5t-kMHucpOH0GJdCgf-5" vertex="1">
          <mxGeometry x="210" y="85" width="120" height="60" as="geometry" />
        </mxCell>
        <mxCell id="4RL9cxB60USZuB9PjdWt-23" style="edgeStyle=orthogonalEdgeStyle;rounded=0;orthogonalLoop=1;jettySize=auto;html=1;exitX=1;exitY=0.5;exitDx=0;exitDy=0;exitPerimeter=0;entryX=0;entryY=0.5;entryDx=0;entryDy=0;" parent="Ua5t-kMHucpOH0GJdCgf-5" source="4RL9cxB60USZuB9PjdWt-11" target="4RL9cxB60USZuB9PjdWt-21" edge="1">
          <mxGeometry relative="1" as="geometry" />
        </mxCell>
        <mxCell id="4RL9cxB60USZuB9PjdWt-24" value="Rule Change" style="edgeLabel;html=1;align=center;verticalAlign=middle;resizable=0;points=[];" parent="4RL9cxB60USZuB9PjdWt-23" vertex="1" connectable="0">
          <mxGeometry x="0.2682" y="-1" relative="1" as="geometry">
            <mxPoint x="-17" y="-1" as="offset" />
          </mxGeometry>
        </mxCell>
        <mxCell id="4RL9cxB60USZuB9PjdWt-14" value="Kafka consume" style="rounded=1;whiteSpace=wrap;html=1;" parent="Ua5t-kMHucpOH0GJdCgf-5" vertex="1">
          <mxGeometry x="610" y="80" width="140" height="60" as="geometry" />
        </mxCell>
        <mxCell id="4RL9cxB60USZuB9PjdWt-38" value="generate event record" style="rounded=1;whiteSpace=wrap;html=1;" parent="Ua5t-kMHucpOH0GJdCgf-5" vertex="1">
          <mxGeometry x="620" y="240" width="120" height="60" as="geometry" />
        </mxCell>
        <mxCell id="4RL9cxB60USZuB9PjdWt-39" style="edgeStyle=orthogonalEdgeStyle;rounded=0;orthogonalLoop=1;jettySize=auto;html=1;exitX=0.5;exitY=1;exitDx=0;exitDy=0;entryX=0.5;entryY=0;entryDx=0;entryDy=0;" parent="Ua5t-kMHucpOH0GJdCgf-5" source="4RL9cxB60USZuB9PjdWt-14" target="4RL9cxB60USZuB9PjdWt-38" edge="1">
          <mxGeometry relative="1" as="geometry" />
        </mxCell>
        <mxCell id="4RL9cxB60USZuB9PjdWt-42" value="match user rule" style="edgeLabel;html=1;align=center;verticalAlign=middle;resizable=0;points=[];" parent="4RL9cxB60USZuB9PjdWt-39" vertex="1" connectable="0">
          <mxGeometry x="-0.0981" y="4" relative="1" as="geometry">
            <mxPoint as="offset" />
          </mxGeometry>
        </mxCell>
        <mxCell id="4RL9cxB60USZuB9PjdWt-41" value="" style="edgeStyle=orthogonalEdgeStyle;rounded=0;orthogonalLoop=1;jettySize=auto;html=1;" parent="Ua5t-kMHucpOH0GJdCgf-5" source="4RL9cxB60USZuB9PjdWt-40" target="4RL9cxB60USZuB9PjdWt-14" edge="1">
          <mxGeometry relative="1" as="geometry">
            <Array as="points">
              <mxPoint x="590" y="118" />
              <mxPoint x="590" y="118" />
            </Array>
          </mxGeometry>
        </mxCell>
        <mxCell id="4RL9cxB60USZuB9PjdWt-40" value="update match&lt;br style=&quot;border-color: var(--border-color);&quot;&gt;consumer rule" style="shape=parallelogram;html=1;strokeWidth=2;perimeter=parallelogramPerimeter;whiteSpace=wrap;rounded=1;arcSize=12;size=0.23;" parent="Ua5t-kMHucpOH0GJdCgf-5" vertex="1">
          <mxGeometry x="400" y="80" width="120" height="70" as="geometry" />
        </mxCell>
        <mxCell id="4RL9cxB60USZuB9PjdWt-45" value="notify user" style="whiteSpace=wrap;html=1;rounded=1;" parent="Ua5t-kMHucpOH0GJdCgf-5" vertex="1">
          <mxGeometry x="820" y="240" width="120" height="60" as="geometry" />
        </mxCell>
        <mxCell id="4RL9cxB60USZuB9PjdWt-46" value="" style="edgeStyle=orthogonalEdgeStyle;rounded=0;orthogonalLoop=1;jettySize=auto;html=1;" parent="Ua5t-kMHucpOH0GJdCgf-5" source="4RL9cxB60USZuB9PjdWt-38" target="4RL9cxB60USZuB9PjdWt-45" edge="1">
          <mxGeometry relative="1" as="geometry" />
        </mxCell>
        <UserObject label="https://www.postgresql.org/docs/current/sql-notify.html" link="https://www.postgresql.org/docs/current/sql-notify.html" linkTarget="_blank" id="Ua5t-kMHucpOH0GJdCgf-2">
          <mxCell style="text;whiteSpace=wrap;html=1;" vertex="1" parent="Ua5t-kMHucpOH0GJdCgf-5">
            <mxGeometry x="110" width="320" height="40" as="geometry" />
          </mxCell>
        </UserObject>
        <mxCell id="Ua5t-kMHucpOH0GJdCgf-4" style="edgeStyle=orthogonalEdgeStyle;rounded=0;orthogonalLoop=1;jettySize=auto;html=1;exitX=0.5;exitY=0;exitDx=0;exitDy=0;" edge="1" parent="Ua5t-kMHucpOH0GJdCgf-5" source="4RL9cxB60USZuB9PjdWt-21" target="Ua5t-kMHucpOH0GJdCgf-2">
          <mxGeometry relative="1" as="geometry" />
        </mxCell>
        <mxCell id="4RL9cxB60USZuB9PjdWt-36" style="edgeStyle=orthogonalEdgeStyle;rounded=0;orthogonalLoop=1;jettySize=auto;html=1;exitX=0.5;exitY=1;exitDx=0;exitDy=0;entryX=0.5;entryY=0;entryDx=0;entryDy=0;" parent="1" source="4RL9cxB60USZuB9PjdWt-7" target="4RL9cxB60USZuB9PjdWt-14" edge="1">
          <mxGeometry relative="1" as="geometry" />
        </mxCell>
        <mxCell id="Ua5t-kMHucpOH0GJdCgf-8" value=":event system" style="shape=umlLifeline;perimeter=lifelinePerimeter;whiteSpace=wrap;html=1;container=1;dropTarget=0;collapsible=0;recursiveResize=0;outlineConnect=0;portConstraint=eastwest;newEdgeStyle={&quot;edgeStyle&quot;:&quot;elbowEdgeStyle&quot;,&quot;elbow&quot;:&quot;vertical&quot;,&quot;curved&quot;:0,&quot;rounded&quot;:0};" vertex="1" parent="1">
          <mxGeometry x="390" y="610" width="100" height="300" as="geometry" />
        </mxCell>
        <mxCell id="Ua5t-kMHucpOH0GJdCgf-13" value=":Postgre" style="shape=umlLifeline;perimeter=lifelinePerimeter;whiteSpace=wrap;html=1;container=1;dropTarget=0;collapsible=0;recursiveResize=0;outlineConnect=0;portConstraint=eastwest;newEdgeStyle={&quot;edgeStyle&quot;:&quot;elbowEdgeStyle&quot;,&quot;elbow&quot;:&quot;vertical&quot;,&quot;curved&quot;:0,&quot;rounded&quot;:0};" vertex="1" parent="1">
          <mxGeometry x="660" y="610" width="100" height="300" as="geometry" />
        </mxCell>
        <mxCell id="Ua5t-kMHucpOH0GJdCgf-15" value="" style="shape=umlLifeline;perimeter=lifelinePerimeter;whiteSpace=wrap;html=1;container=1;dropTarget=0;collapsible=0;recursiveResize=0;outlineConnect=0;portConstraint=eastwest;newEdgeStyle={&quot;edgeStyle&quot;:&quot;elbowEdgeStyle&quot;,&quot;elbow&quot;:&quot;vertical&quot;,&quot;curved&quot;:0,&quot;rounded&quot;:0};participant=umlActor;" vertex="1" parent="1">
          <mxGeometry x="220" y="610" width="20" height="300" as="geometry" />
        </mxCell>
        <mxCell id="Ua5t-kMHucpOH0GJdCgf-16" value="订阅规则" style="html=1;verticalAlign=bottom;endArrow=block;edgeStyle=elbowEdgeStyle;elbow=vertical;curved=0;rounded=0;" edge="1" parent="1" target="Ua5t-kMHucpOH0GJdCgf-8">
          <mxGeometry width="80" relative="1" as="geometry">
            <mxPoint x="230" y="720" as="sourcePoint" />
            <mxPoint x="310" y="720" as="targetPoint" />
            <Array as="points">
              <mxPoint x="330" y="680" />
            </Array>
          </mxGeometry>
        </mxCell>
        <mxCell id="Ua5t-kMHucpOH0GJdCgf-17" value="增加订阅规则" style="html=1;verticalAlign=bottom;endArrow=block;edgeStyle=elbowEdgeStyle;elbow=vertical;curved=0;rounded=0;" edge="1" parent="1" target="Ua5t-kMHucpOH0GJdCgf-13">
          <mxGeometry width="80" relative="1" as="geometry">
            <mxPoint x="440" y="760" as="sourcePoint" />
            <mxPoint x="520" y="760" as="targetPoint" />
          </mxGeometry>
        </mxCell>
        <mxCell id="Ua5t-kMHucpOH0GJdCgf-18" value=":Kafka" style="shape=umlLifeline;perimeter=lifelinePerimeter;whiteSpace=wrap;html=1;container=1;dropTarget=0;collapsible=0;recursiveResize=0;outlineConnect=0;portConstraint=eastwest;newEdgeStyle={&quot;edgeStyle&quot;:&quot;elbowEdgeStyle&quot;,&quot;elbow&quot;:&quot;vertical&quot;,&quot;curved&quot;:0,&quot;rounded&quot;:0};" vertex="1" parent="1">
          <mxGeometry x="950" y="600" width="100" height="300" as="geometry" />
        </mxCell>
        <mxCell id="Ua5t-kMHucpOH0GJdCgf-19" value="增加kafka处理规则" style="html=1;verticalAlign=bottom;endArrow=block;edgeStyle=elbowEdgeStyle;elbow=vertical;curved=0;rounded=0;" edge="1" parent="1" target="Ua5t-kMHucpOH0GJdCgf-18">
          <mxGeometry width="80" relative="1" as="geometry">
            <mxPoint x="710" y="800" as="sourcePoint" />
            <mxPoint x="790" y="800" as="targetPoint" />
          </mxGeometry>
        </mxCell>
        <mxCell id="Ua5t-kMHucpOH0GJdCgf-20" value="return&amp;nbsp; 订阅成功" style="html=1;verticalAlign=bottom;endArrow=open;dashed=1;endSize=8;edgeStyle=elbowEdgeStyle;elbow=vertical;curved=0;rounded=0;" edge="1" parent="1" target="Ua5t-kMHucpOH0GJdCgf-15">
          <mxGeometry relative="1" as="geometry">
            <mxPoint x="980" y="840" as="sourcePoint" />
            <mxPoint x="900" y="840" as="targetPoint" />
          </mxGeometry>
        </mxCell>
        <mxCell id="Ua5t-kMHucpOH0GJdCgf-25" value="匹配事件插入event" style="html=1;verticalAlign=bottom;endArrow=block;edgeStyle=elbowEdgeStyle;elbow=vertical;curved=0;rounded=0;" edge="1" parent="1" target="Ua5t-kMHucpOH0GJdCgf-13">
          <mxGeometry x="-0.0017" width="80" relative="1" as="geometry">
            <mxPoint x="1000" y="710" as="sourcePoint" />
            <mxPoint x="1080" y="710" as="targetPoint" />
            <mxPoint as="offset" />
          </mxGeometry>
        </mxCell>
        <mxCell id="Ua5t-kMHucpOH0GJdCgf-28" value="" style="html=1;verticalAlign=bottom;endArrow=open;dashed=1;endSize=8;edgeStyle=elbowEdgeStyle;elbow=vertical;curved=0;rounded=0;" edge="1" parent="1" target="Ua5t-kMHucpOH0GJdCgf-15">
          <mxGeometry relative="1" as="geometry">
            <mxPoint x="700" y="710" as="sourcePoint" />
            <mxPoint x="620" y="710" as="targetPoint" />
          </mxGeometry>
        </mxCell>
        <mxCell id="Ua5t-kMHucpOH0GJdCgf-30" value="通知用户" style="edgeLabel;html=1;align=center;verticalAlign=middle;resizable=0;points=[];" vertex="1" connectable="0" parent="Ua5t-kMHucpOH0GJdCgf-28">
          <mxGeometry x="-0.6426" y="-3" relative="1" as="geometry">
            <mxPoint as="offset" />
          </mxGeometry>
        </mxCell>
      </root>
    </mxGraphModel>
  </diagram>
</mxfile>
